<?xml version="1.0" standalone="no"?>
<!DOCTYPE svg PUBLIC "-//W3C//DTD SVG 20010904//EN"
 "http://www.w3.org/TR/2001/REC-SVG-20010904/DTD/svg10.dtd">
<svg version="1.0" xmlns="http://www.w3.org/2000/svg"
 width="512.000000pt" height="512.000000pt" viewBox="0 0 512.000000 512.000000"
 preserveAspectRatio="xMidYMid meet">
<metadata>
Created by potrace 1.11, written by Peter Selinger 2001-2013
</metadata>
<g transform="translate(0.000000,512.000000) scale(0.100000,-0.100000)"
fill="#000000" stroke="none">
<path d="M1493 4858 c-15 -23 -30 -45 -33 -48 -5 -5 -80 -118 -125 -190 -75
-118 -218 -393 -269 -520 -15 -36 -31 -74 -36 -85 -51 -107 -170 -489 -206
-660 -14 -69 -34 -180 -39 -221 -4 -27 -8 -56 -10 -64 -3 -8 -7 -40 -11 -70
-3 -30 -7 -66 -9 -80 -24 -185 -24 -764 0 -860 2 -8 6 -42 10 -75 3 -33 8 -71
10 -85 2 -14 7 -43 10 -65 3 -22 15 -85 26 -140 12 -55 22 -107 24 -115 57
-274 179 -617 321 -904 55 -111 163 -305 189 -340 14 -19 35 -19 572 -18 307
0 565 1 574 1 17 1 29 27 84 176 60 161 129 398 165 565 13 62 14 66 30 170 7
41 14 83 16 92 1 9 6 48 9 85 4 37 9 76 11 87 23 124 23 626 -1 821 -2 17 -6
53 -9 80 -9 80 -16 125 -31 210 -8 44 -16 92 -19 106 -18 108 -124 491 -146
531 -6 10 -10 24 -10 31 0 8 -6 27 -14 43 -7 16 -31 74 -52 129 -48 124 -230
492 -267 540 -4 6 -35 55 -69 110 -34 55 -64 102 -67 105 -3 3 -26 34 -50 70
-25 36 -47 67 -50 70 -4 3 -26 32 -51 65 -76 102 -203 247 -329 374 l-120 123
-28 -44z"/>
<path d="M2986 4313 c-137 -36 -266 -148 -320 -277 -24 -57 -28 -82 -32 -171
-12 -268 203 -488 476 -488 271 1 483 213 482 483 -2 305 -307 533 -606 453z"/>
<path d="M4100 3536 c-329 -164 -605 -363 -879 -632 l-134 -132 8 -39 c4 -21
9 -49 11 -63 3 -14 9 -47 14 -75 6 -27 12 -68 15 -90 6 -52 16 -124 21 -155
18 -118 26 -587 12 -765 -6 -81 -22 -220 -33 -285 -25 -156 -37 -221 -45 -250
-7 -27 -38 -155 -45 -190 -3 -13 -27 -98 -36 -125 -50 -157 -86 -259 -137
-387 -11 -26 -9 -28 11 -29 12 0 161 -1 330 -2 l309 -2 34 42 c19 23 40 48 47
55 7 7 28 33 47 58 19 25 38 50 43 55 142 176 346 535 442 780 26 66 51 129
56 140 24 58 89 283 114 400 17 75 43 221 51 280 3 27 8 61 10 75 24 192 23
650 -2 775 -3 11 -6 40 -9 65 -13 129 -95 496 -122 543 -7 13 -30 4 -133 -47z"/>
</g>
</svg>
