<?xml version="1.0" encoding="utf-8"?>
<!-- Generator: Adobe Illustrator 14.0.0, SVG Export Plug-In  -->
<!DOCTYPE svg PUBLIC "-//W3C//DTD SVG 1.1//EN" "http://www.w3.org/Graphics/SVG/1.1/DTD/svg11.dtd" [
	<!ENTITY ns_flows "http://ns.adobe.com/Flows/1.0/">
]>
<svg version="1.1"
	 xmlns="http://www.w3.org/2000/svg" xmlns:xlink="http://www.w3.org/1999/xlink" xmlns:a="http://ns.adobe.com/AdobeSVGViewerExtensions/3.0/"
	 x="0px" y="0px" width="200px" height="200px" viewBox="-1 -1 200 200" enable-background="new -1 -1 200 200"
	 xml:space="preserve">
<defs>
</defs>
<path fill="#86C323" d="M168.6,28.9C149.9,10.3,125.1,0,98.8,0C72.4,0,47.6,10.3,28.9,28.9C10.3,47.6,0,72.4,0,98.8
	c0,26.4,10.3,51.2,28.9,69.8c18.7,18.7,43.5,28.9,69.8,28.9c26.4,0,51.2-10.3,69.8-28.9c18.7-18.7,28.9-43.5,28.9-69.8
	C197.5,72.4,187.2,47.6,168.6,28.9z M145.9,75.2l-55.2,55.2c-1.1,1.1-2.6,1.7-4.1,1.7c-1.5,0-3-0.6-4.1-1.7l-31-31
	c-2.3-2.3-2.3-5.9,0-8.2c2.3-2.3,5.9-2.3,8.2,0l26.9,26.9l51.1-51.1c2.3-2.3,5.9-2.3,8.2,0C148.2,69.3,148.2,73,145.9,75.2z"/>
</svg>
